{
	"asset":{
		"version":"2.0",
		"generator":"Created using the official Cinema 4D glTF Exporter 1.000x284978"
	},
	"scenes":[{
		"nodes":[0,
		1,
		2]
	}],
	"nodes":[{
		"name":"bear.002",
		"translation":[762.9434814453125,
		183.7624969482422,
		-188.4398956298828],
		"rotation":[0.6759320497512817,
		0.20764359831809998,
		0.20764359831809998,
		-0.6759320497512817],
		"scale":[100.00000762939453,
		100.00000762939453,
		100.0],
		"children":[3,
		4,
		5,
		6]
	},
	{
		"name":"Armature.001",
		"translation":[766.3527221679688,
		17.126733779907228,
		-208.68368530273438],
		"rotation":[0.6992696523666382,
		0.10498537868261337,
		0.10498537868261337,
		-0.6992696523666382],
		"scale":[100.00000762939453,
		100.00000762939453,
		100.0],
		"children":[7]
	},
	{
		"name":"bow_bear",
		"mesh":0,
		"translation":[748.1396484375,
		165.2001190185547,
		-162.70689392089845],
		"rotation":[7.909253696425367e-8,
		-0.23935148119926454,
		1.9497655046052388e-8,
		0.9709329605102539],
		"scale":[10.19378662109375,
		10.193785667419434,
		10.19378662109375]
	},
	{
		"name":"bear.002-eyes",
		"children":[8]
	},
	{
		"name":"bear.002-Nose.002",
		"children":[9]
	},
	{
		"name":"bear.002-Material.012",
		"children":[10]
	},
	{
		"name":"bear.002-fabric_white",
		"children":[11]
	},
	{
		"name":"body",
		"translation":[0.0,
		0.0,
		0.0],
		"rotation":[-0.7071067690849304,
		0.0,
		0.0,
		-0.7071067690849304],
		"scale":[1.0,
		1.0,
		1.0],
		"children":[12,
		13,
		14,
		15,
		16]
	},
	{
		"name":"bear.002-eyes",
		"mesh":1,
		"skin":1
	},
	{
		"name":"bear.002-Nose.002",
		"mesh":2,
		"skin":2
	},
	{
		"name":"bear.002-Material.012",
		"mesh":3,
		"skin":0
	},
	{
		"name":"bear.002-fabric_white",
		"mesh":4,
		"skin":3
	},
	{
		"name":"head",
		"translation":[0.0,
		1.6545562744140626,
		0.0],
		"rotation":[0.3222291171550751,
		-0.8426968455314636,
		-0.27996817231178286,
		-0.3280979096889496],
		"scale":[1.0,
		1.0,
		1.0],
		"children":[17]
	},
	{
		"name":"armR",
		"translation":[-0.45588940382003786,
		1.547867774963379,
		0.03280980885028839],
		"rotation":[0.022589413449168206,
		0.03759506344795227,
		0.9183209538459778,
		0.393399178981781],
		"scale":[1.0000001192092896,
		1.0,
		1.0],
		"children":[18]
	},
	{
		"name":"legR",
		"translation":[-0.5796763300895691,
		0.03769207000732422,
		0.14456336200237275],
		"rotation":[0.15133218467235566,
		0.6294435262680054,
		0.6628851294517517,
		0.3761417865753174],
		"scale":[0.9999998807907105,
		0.9999994039535523,
		0.9999997615814209],
		"children":[19]
	},
	{
		"name":"armL",
		"translation":[0.486331045627594,
		1.547867774963379,
		0.0328097939491272],
		"rotation":[0.07169061154127121,
		0.07773450016975403,
		0.9157970547676086,
		-0.38747072219848635],
		"scale":[1.0000001192092896,
		1.0,
		1.0],
		"children":[20]
	},
	{
		"name":"legL",
		"translation":[0.6101179718971252,
		0.03769207000732422,
		0.14456337690353394],
		"rotation":[0.3629702627658844,
		0.7106661200523377,
		0.5749528408050537,
		0.18065303564071656],
		"scale":[1.0,
		1.000000238418579,
		1.0],
		"children":[21]
	},
	{
		"name":"head_end",
		"translation":[8.881784197001253e-16,
		1.309112548828125,
		0.0],
		"rotation":[0.0,
		0.0,
		0.0,
		-1.0],
		"scale":[1.0,
		1.0,
		1.0]
	},
	{
		"name":"armR_end",
		"translation":[9.117600541230786e-8,
		1.1998226642608643,
		1.7532807206066537e-8],
		"rotation":[-1.3877787807814458e-17,
		0.0,
		0.0,
		-1.0],
		"scale":[1.0,
		1.0,
		1.0]
	},
	{
		"name":"legR_end",
		"translation":[-1.035156849127361e-8,
		1.3061326742172242,
		3.557387273644963e-8],
		"rotation":[-2.7755575615628916e-17,
		-2.7755575615628916e-17,
		7.703719777548944e-34,
		-1.0],
		"scale":[1.0,
		1.0,
		1.0]
	},
	{
		"name":"armL_end",
		"translation":[-8.794201988848727e-8,
		1.1998226642608643,
		3.930731296009071e-10],
		"rotation":[4.440892098500626e-16,
		0.0,
		0.0,
		-1.0],
		"scale":[1.0,
		1.0,
		1.0]
	},
	{
		"name":"legL_end",
		"translation":[-1.0868962618815204e-8,
		1.3061325550079346,
		-5.925640422788092e-9],
		"rotation":[4.440892098500626e-16,
		-1.949395506128937e-16,
		-8.657055100020625e-32,
		-1.0],
		"scale":[1.0,
		1.0,
		1.0]
	}],
	"meshes":[{
		"name":"bow_bear",
		"primitives":[{
			"attributes":{
				"TEXCOORD_0":3,
				"POSITION":1,
				"NORMAL":2
			},
			"indices":0,
			"material":0
		}]
	},
	{
		"name":"bear.002-eyes",
		"primitives":[{
			"attributes":{
				"TEXCOORD_0":7,
				"POSITION":5,
				"NORMAL":6,
				"WEIGHTS_0":9,
				"JOINTS_0":8
			},
			"indices":4,
			"material":1
		}]
	},
	{
		"name":"bear.002-Nose.002",
		"primitives":[{
			"attributes":{
				"TEXCOORD_0":13,
				"POSITION":11,
				"NORMAL":12,
				"WEIGHTS_0":15,
				"JOINTS_0":14
			},
			"indices":10,
			"material":2
		}]
	},
	{
		"name":"bear.002-Material.012",
		"primitives":[{
			"attributes":{
				"TEXCOORD_0":19,
				"POSITION":17,
				"NORMAL":18,
				"WEIGHTS_0":21,
				"JOINTS_0":20
			},
			"indices":16,
			"material":3
		}]
	},
	{
		"name":"bear.002-fabric_white",
		"primitives":[{
			"attributes":{
				"TEXCOORD_0":25,
				"POSITION":23,
				"NORMAL":24,
				"WEIGHTS_0":27,
				"JOINTS_0":26
			},
			"indices":22,
			"material":4
		}]
	}],
	"skins":[{
		"inverseBindMatrices":34,
		"joints":[7,
		12,
		13,
		14,
		15,
		16]
	},
	{
		"inverseBindMatrices":35,
		"joints":[7,
		12,
		13,
		14,
		15,
		16]
	},
	{
		"inverseBindMatrices":36,
		"joints":[7,
		12,
		13,
		14,
		15,
		16]
	},
	{
		"inverseBindMatrices":37,
		"joints":[7,
		12,
		13,
		14,
		15,
		16]
	}],
	"accessors":[{
		"bufferView":0,
		"type":"SCALAR",
		"componentType":5123,
		"count":27864,
		"byteOffset":0,
		"min":[0],
		"max":[4679]
	},
	{
		"bufferView":1,
		"type":"VEC3",
		"componentType":5126,
		"count":4680,
		"byteOffset":0,
		"min":[-7.503499984741211,
		-8.193181991577149,
		-9.920125007629395],
		"max":[6.7619781494140629,
		2.661296844482422,
		7.28537654876709]
	},
	{
		"bufferView":1,
		"type":"VEC3",
		"componentType":5126,
		"count":4680,
		"byteOffset":12,
		"min":[-0.9991655349731445,
		-0.9999698400497437,
		-0.9981566667556763],
		"max":[0.9993373155593872,
		0.9998764395713806,
		0.9981470108032227]
	},
	{
		"bufferView":1,
		"type":"VEC2",
		"componentType":5126,
		"count":4680,
		"byteOffset":24,
		"min":[-0.8910511136054993,
		-0.13307926058769227],
		"max":[0.891051173210144,
		0.13307926058769227]
	},
	{
		"bufferView":2,
		"type":"SCALAR",
		"componentType":5123,
		"count":864,
		"byteOffset":0,
		"min":[0],
		"max":[196]
	},
	{
		"bufferView":3,
		"type":"VEC3",
		"componentType":5126,
		"count":197,
		"byteOffset":0,
		"min":[-0.44692692160606387,
		-0.6566068530082703,
		0.8150451183319092],
		"max":[0.3188418745994568,
		-0.5356810092926025,
		1.0142908096313477]
	},
	{
		"bufferView":3,
		"type":"VEC3",
		"componentType":5126,
		"count":197,
		"byteOffset":12,
		"min":[-0.9861981868743897,
		-0.9996203184127808,
		-0.9924650192260742],
		"max":[0.9973757863044739,
		0.531826376914978,
		0.988930881023407]
	},
	{
		"bufferView":3,
		"type":"VEC2",
		"componentType":5126,
		"count":197,
		"byteOffset":24,
		"min":[0.0,
		0.0],
		"max":[1.0000001192092896,
		0.625]
	},
	{
		"bufferView":4,
		"type":"VEC4",
		"componentType":5123,
		"count":197,
		"byteOffset":0,
		"min":[1,
		0,
		2,
		3],
		"max":[1,
		0,
		2,
		3]
	},
	{
		"bufferView":5,
		"type":"VEC4",
		"componentType":5126,
		"count":197,
		"byteOffset":0,
		"min":[1.0,
		0.0,
		0.0,
		0.0],
		"max":[1.0,
		0.0,
		0.0,
		0.0]
	},
	{
		"bufferView":6,
		"type":"SCALAR",
		"componentType":5123,
		"count":7296,
		"byteOffset":0,
		"min":[0],
		"max":[1328]
	},
	{
		"bufferView":7,
		"type":"VEC3",
		"componentType":5126,
		"count":1329,
		"byteOffset":0,
		"min":[-0.2603050768375397,
		-0.8646013736724854,
		0.6031677722930908],
		"max":[0.104715496301651,
		-0.708779513835907,
		0.8460216522216797]
	},
	{
		"bufferView":7,
		"type":"VEC3",
		"componentType":5126,
		"count":1329,
		"byteOffset":12,
		"min":[-0.9625858068466187,
		-0.9961978197097778,
		-0.922766923904419],
		"max":[0.993399977684021,
		0.41150614619255068,
		0.9983336329460144]
	},
	{
		"bufferView":7,
		"type":"VEC2",
		"componentType":5126,
		"count":1329,
		"byteOffset":24,
		"min":[0.23974597454071046,
		-0.69053715467453],
		"max":[0.6429455876350403,
		-0.2503758668899536]
	},
	{
		"bufferView":8,
		"type":"VEC4",
		"componentType":5123,
		"count":1329,
		"byteOffset":0,
		"min":[1,
		0,
		2,
		3],
		"max":[1,
		0,
		2,
		3]
	},
	{
		"bufferView":9,
		"type":"VEC4",
		"componentType":5126,
		"count":1329,
		"byteOffset":0,
		"min":[1.0,
		0.0,
		0.0,
		0.0],
		"max":[1.0,
		0.0,
		0.0,
		0.0]
	},
	{
		"bufferView":10,
		"type":"SCALAR",
		"componentType":5123,
		"count":4176,
		"byteOffset":0,
		"min":[0],
		"max":[671]
	},
	{
		"bufferView":11,
		"type":"VEC3",
		"componentType":5126,
		"count":672,
		"byteOffset":0,
		"min":[-0.06831434369087219,
		-0.8515843152999878,
		0.4238760471343994],
		"max":[-0.033694565296173099,
		-0.8007510900497437,
		0.6532657146453857]
	},
	{
		"bufferView":11,
		"type":"VEC3",
		"componentType":5126,
		"count":672,
		"byteOffset":12,
		"min":[-0.9998659491539002,
		-0.9987331628799439,
		-0.7009562253952026],
		"max":[0.9999470114707947,
		0.9996131658554077,
		0.7161732316017151]
	},
	{
		"bufferView":11,
		"type":"VEC2",
		"componentType":5126,
		"count":672,
		"byteOffset":24,
		"min":[0.0,
		1.0],
		"max":[1.8125,
		1.0]
	},
	{
		"bufferView":12,
		"type":"VEC4",
		"componentType":5123,
		"count":672,
		"byteOffset":0,
		"min":[1,
		0,
		2,
		3],
		"max":[1,
		0,
		2,
		3]
	},
	{
		"bufferView":13,
		"type":"VEC4",
		"componentType":5126,
		"count":672,
		"byteOffset":0,
		"min":[1.0,
		0.0,
		0.0,
		0.0],
		"max":[1.0,
		0.0,
		0.0,
		0.0]
	},
	{
		"bufferView":14,
		"type":"SCALAR",
		"componentType":5123,
		"count":25920,
		"byteOffset":0,
		"min":[0],
		"max":[5058]
	},
	{
		"bufferView":15,
		"type":"VEC3",
		"componentType":5126,
		"count":5059,
		"byteOffset":0,
		"min":[-1.5769867897033692,
		-1.465770959854126,
		-1.8974040746688843],
		"max":[1.576986312866211,
		1.0357563495635987,
		1.6418054103851319]
	},
	{
		"bufferView":15,
		"type":"VEC3",
		"componentType":5126,
		"count":5059,
		"byteOffset":12,
		"min":[-0.9998438358306885,
		-0.9999433159828186,
		-0.9992688298225403],
		"max":[0.9998438358306885,
		0.9998420476913452,
		0.9999465346336365]
	},
	{
		"bufferView":15,
		"type":"VEC2",
		"componentType":5126,
		"count":5059,
		"byteOffset":24,
		"min":[0.0,
		-0.14095157384872437],
		"max":[0.14770139753818513,
		0.0]
	},
	{
		"bufferView":16,
		"type":"VEC4",
		"componentType":5123,
		"count":5059,
		"byteOffset":0,
		"min":[0,
		0,
		0,
		0],
		"max":[5,
		4,
		3,
		3]
	},
	{
		"bufferView":17,
		"type":"VEC4",
		"componentType":5126,
		"count":5059,
		"byteOffset":0,
		"min":[1.0,
		0.0,
		0.0,
		0.0],
		"max":[1.0,
		0.0,
		0.0,
		0.0]
	},
	{
		"bufferView":18,
		"type":"SCALAR",
		"componentType":5126,
		"count":4,
		"byteOffset":0,
		"min":[0.0],
		"max":[3.0]
	},
	{
		"bufferView":18,
		"type":"VEC3",
		"componentType":5126,
		"count":4,
		"byteOffset":16,
		"min":[0.0,
		1.6545562744140626,
		0.0],
		"max":[0.0,
		1.6545562744140626,
		0.0]
	},
	{
		"bufferView":19,
		"type":"SCALAR",
		"componentType":5126,
		"count":4,
		"byteOffset":0,
		"min":[0.0],
		"max":[3.0]
	},
	{
		"bufferView":19,
		"type":"VEC4",
		"componentType":5126,
		"count":4,
		"byteOffset":16,
		"min":[-9.014439781705338e-25,
		-0.8450682163238525,
		-0.2886395752429962,
		-1.0],
		"max":[0.32092443108558657,
		-2.7755575615628916e-17,
		0.0,
		-0.3155224621295929]
	},
	{
		"bufferView":20,
		"type":"SCALAR",
		"componentType":5126,
		"count":4,
		"byteOffset":0,
		"min":[0.0],
		"max":[3.0]
	},
	{
		"bufferView":20,
		"type":"VEC3",
		"componentType":5126,
		"count":4,
		"byteOffset":16,
		"min":[1.0,
		1.0,
		1.0],
		"max":[1.0,
		1.0,
		1.0]
	},
	{
		"bufferView":21,
		"type":"MAT4",
		"componentType":5126,
		"count":6,
		"byteOffset":0,
		"min":[-0.7669651508331299,
		-0.6635594367980957,
		0.17172576487064362,
		0.0,
		-0.38556262850761416,
		-0.9970267415046692,
		-0.9559122920036316,
		0.0,
		-0.6985433101654053,
		-0.6876475811004639,
		-2.5270289958517417e-17,
		0.0,
		-0.24498407542705537,
		-0.414637953042984,
		-0.10973142832517624,
		1.0],
		"max":[0.9559122920036316,
		0.714550256729126,
		0.6919426918029785,
		0.0,
		0.531618595123291,
		0.12868063151836396,
		0.709653913974762,
		0.0,
		0.7242318391799927,
		1.0,
		0.7206529974937439,
		0.0,
		1.5795344114303589,
		1.6663576364517213,
		1.5921381711959839,
		1.0]
	},
	{
		"bufferView":22,
		"type":"MAT4",
		"componentType":5126,
		"count":6,
		"byteOffset":0,
		"min":[-0.7669651508331299,
		-0.6635594367980957,
		0.17172576487064362,
		0.0,
		-0.38556262850761416,
		-0.9970267415046692,
		-0.9559122920036316,
		0.0,
		-0.6985433101654053,
		-0.6876475811004639,
		-2.5270289958517417e-17,
		0.0,
		-0.24498407542705537,
		-0.414637953042984,
		-0.10973142832517624,
		1.0],
		"max":[0.9559122920036316,
		0.714550256729126,
		0.6919426918029785,
		0.0,
		0.531618595123291,
		0.12868063151836396,
		0.709653913974762,
		0.0,
		0.7242318391799927,
		1.0,
		0.7206529974937439,
		0.0,
		1.5795344114303589,
		1.6663576364517213,
		1.5921381711959839,
		1.0]
	},
	{
		"bufferView":23,
		"type":"MAT4",
		"componentType":5126,
		"count":6,
		"byteOffset":0,
		"min":[-0.7669651508331299,
		-0.6635594367980957,
		0.17172576487064362,
		0.0,
		-0.38556262850761416,
		-0.9970267415046692,
		-0.9559122920036316,
		0.0,
		-0.6985433101654053,
		-0.6876475811004639,
		-2.5270289958517417e-17,
		0.0,
		-0.24498407542705537,
		-0.414637953042984,
		-0.10973142832517624,
		1.0],
		"max":[0.9559122920036316,
		0.714550256729126,
		0.6919426918029785,
		0.0,
		0.531618595123291,
		0.12868063151836396,
		0.709653913974762,
		0.0,
		0.7242318391799927,
		1.0,
		0.7206529974937439,
		0.0,
		1.5795344114303589,
		1.6663576364517213,
		1.5921381711959839,
		1.0]
	},
	{
		"bufferView":24,
		"type":"MAT4",
		"componentType":5126,
		"count":6,
		"byteOffset":0,
		"min":[-0.7669651508331299,
		-0.6635594367980957,
		0.17172576487064362,
		0.0,
		-0.38556262850761416,
		-0.9970267415046692,
		-0.9559122920036316,
		0.0,
		-0.6985433101654053,
		-0.6876475811004639,
		-2.5270289958517417e-17,
		0.0,
		-0.24498407542705537,
		-0.414637953042984,
		-0.10973142832517624,
		1.0],
		"max":[0.9559122920036316,
		0.714550256729126,
		0.6919426918029785,
		0.0,
		0.531618595123291,
		0.12868063151836396,
		0.709653913974762,
		0.0,
		0.7242318391799927,
		1.0,
		0.7206529974937439,
		0.0,
		1.5795344114303589,
		1.6663576364517213,
		1.5921381711959839,
		1.0]
	}],
	"bufferViews":[{
		"buffer":0,
		"byteOffset":0,
		"target":34963,
		"byteLength":55728
	},
	{
		"buffer":0,
		"byteOffset":55728,
		"target":34962,
		"byteLength":149760,
		"byteStride":32
	},
	{
		"buffer":1,
		"byteOffset":0,
		"target":34963,
		"byteLength":1728
	},
	{
		"buffer":1,
		"byteOffset":1728,
		"target":34962,
		"byteLength":6304,
		"byteStride":32
	},
	{
		"buffer":1,
		"byteOffset":8032,
		"target":34962,
		"byteLength":1576
	},
	{
		"buffer":1,
		"byteOffset":9608,
		"target":34962,
		"byteLength":3152
	},
	{
		"buffer":2,
		"byteOffset":0,
		"target":34963,
		"byteLength":14592
	},
	{
		"buffer":2,
		"byteOffset":14592,
		"target":34962,
		"byteLength":42528,
		"byteStride":32
	},
	{
		"buffer":2,
		"byteOffset":57120,
		"target":34962,
		"byteLength":10632
	},
	{
		"buffer":2,
		"byteOffset":67752,
		"target":34962,
		"byteLength":21264
	},
	{
		"buffer":3,
		"byteOffset":0,
		"target":34963,
		"byteLength":8352
	},
	{
		"buffer":3,
		"byteOffset":8352,
		"target":34962,
		"byteLength":21504,
		"byteStride":32
	},
	{
		"buffer":3,
		"byteOffset":29856,
		"target":34962,
		"byteLength":5376
	},
	{
		"buffer":3,
		"byteOffset":35232,
		"target":34962,
		"byteLength":10752
	},
	{
		"buffer":4,
		"byteOffset":0,
		"target":34963,
		"byteLength":51840
	},
	{
		"buffer":4,
		"byteOffset":51840,
		"target":34962,
		"byteLength":161888,
		"byteStride":32
	},
	{
		"buffer":4,
		"byteOffset":213728,
		"target":34962,
		"byteLength":40472
	},
	{
		"buffer":4,
		"byteOffset":254200,
		"target":34962,
		"byteLength":80944
	},
	{
		"buffer":5,
		"byteOffset":0,
		"byteLength":64
	},
	{
		"buffer":5,
		"byteOffset":64,
		"byteLength":80
	},
	{
		"buffer":5,
		"byteOffset":144,
		"byteLength":64
	},
	{
		"buffer":6,
		"byteOffset":0,
		"byteLength":384
	},
	{
		"buffer":7,
		"byteOffset":0,
		"byteLength":384
	},
	{
		"buffer":8,
		"byteOffset":0,
		"byteLength":384
	},
	{
		"buffer":9,
		"byteOffset":0,
		"byteLength":384
	}],
	"animations":[{
		"samplers":[{
			"input":28,
			"interpolation":"LINEAR",
			"output":29
		},
		{
			"input":30,
			"interpolation":"LINEAR",
			"output":31
		},
		{
			"input":32,
			"interpolation":"LINEAR",
			"output":33
		}],
		"channels":[{
			"sampler":0,
			"target":{
				"node":12,
				"path":"translation"
			}
		},
		{
			"sampler":1,
			"target":{
				"node":12,
				"path":"rotation"
			}
		},
		{
			"sampler":2,
			"target":{
				"node":12,
				"path":"scale"
			}
		}]
	}],
	"buffers":[{
		"uri":"data:application/octet-stream;base64,",
		"byteLength":205488
	},
	{
		"uri":"data:application/octet-stream;base64,",
		"byteLength":12760
	},
	{
		"uri":"data:application/octet-stream;base64,",
		"byteLength":89016
	},
	{
		"uri":"data:application/octet-stream;base64,",
		"byteLength":45984
	},
	{
		"uri":"data:application/octet-stream;base64,",
		"byteLength":335144
	},
	{
		"uri":"data:application/octet-stream;base64,",
		"byteLength":208
	},
	{
		"uri":"data:application/octet-stream;base64,",
		"byteLength":384
	},
	{
		"uri":"data:application/octet-stream;base64,",
		"byteLength":384
	},
	{
		"uri":"data:application/octet-stream;base64,",
		"byteLength":384
	},
	{
		"uri":"data:application/octet-stream;base64,",
		"byteLength":384
	}],
	"materials":[{
		"pbrMetallicRoughness":{
			"baseColorFactor":[0.5686274766921997,
			0.4292515516281128,
			0.2898908853530884,
			1.0],
			"metallicFactor":0.0,
			"roughnessFactor":0.5153845717992156
		},
		"emissiveFactor":[0.0,
		0.0,
		0.0],
		"alphaMode":"OPAQUE",
		"doubleSided":true,
		"name":"_FRONT_427414"
	},
	{
		"pbrMetallicRoughness":{
			"baseColorFactor":[0.0,
			0.0,
			0.0,
			1.0],
			"metallicFactor":1.0,
			"roughnessFactor":1.0
		},
		"emissiveFactor":[0.0,
		0.0,
		0.0],
		"alphaMode":"OPAQUE",
		"doubleSided":true,
		"name":"eyes"
	},
	{
		"pbrMetallicRoughness":{
			"baseColorFactor":[0.016186395660042764,
			0.00911032222211361,
			0.004832164850085974,
			1.0],
			"metallicFactor":0.0,
			"roughnessFactor":0.6830074883902589
		},
		"emissiveFactor":[0.0,
		0.0,
		0.0],
		"alphaMode":"OPAQUE",
		"doubleSided":true,
		"name":"Nose.002"
	},
	{
		"pbrMetallicRoughness":{
			"baseColorFactor":[0.001891818130388856,
			0.001891818130388856,
			0.001891818130388856,
			1.0],
			"metallicFactor":0.0,
			"roughnessFactor":1.0
		},
		"emissiveFactor":[0.0,
		0.0,
		0.0],
		"alphaMode":"OPAQUE",
		"doubleSided":true,
		"name":"Material.012"
	},
	{
		"pbrMetallicRoughness":{
			"baseColorFactor":[0.6038272976875305,
			0.27391520142555239,
			0.10312506556510928,
			1.0],
			"metallicFactor":0.0,
			"roughnessFactor":0.8299152602263362
		},
		"emissiveFactor":[0.0,
		0.0,
		0.0],
		"alphaMode":"OPAQUE",
		"doubleSided":true,
		"name":"fabric_white"
	}]
}